PathFileType	4	(X/Y/Z)	D:\TRACE\v60_Jaco2_6-2-23\BothDRS_Motion3_2-v60.trc
DataRate	CameraRate	NumFrames	NumMarkers	Units	OrigDataRate	OrigDataStartFrame	OrigNumFrames
100.00	100.00	      42	9	mm	100.00	6126	      7000
Frame#	Time	front left toe			Front right toe			aft left toe			aft right toe			Arm			FL body			FR body			AL Body			AR Body			
		X1	Y1	Z1	X2	Y2	Z2	X3	Y3	Z3	X4	Y4	Z4	X5	Y5	Z5	X6	Y6	Z6	X7	Y7	Z7	X8	Y8	Z8	X9	Y9	Z9	

6126	61.250	-114.79775	92.23133	-311.98303	290.84717	16.23685	-294.16736	-60.78007	11.96910	345.95465	277.90350	85.83971	299.15723	201.85617	1128.36243	-624.06152	1.79609	516.90021	-471.44687	159.71141	512.23914	-476.50259	40.08053	559.36603	471.22702	191.18712	545.62781	466.38678	
6127	61.260	-115.56458	83.49838	-315.58466	290.52173	16.28077	-294.47998	-60.74144	11.86332	345.83627	274.38156	76.09888	296.33340	199.50346	1128.17017	-625.32007	1.52213	516.75018	-472.74213	158.98828	512.69897	-477.41223	38.60499	559.21472	469.95609	189.95328	545.67053	465.24033	
6128	61.270	-116.42405	74.98136	-318.27133	290.58469	16.45778	-294.54648	-61.43890	12.38140	345.75232	271.83774	66.78587	293.96063	197.32204	1128.17664	-626.49371	1.01895	516.61615	-474.15823	159.14807	512.04297	-478.73184	37.24557	559.41846	468.53937	188.71118	545.57721	464.15466	
6129	61.280	-117.36763	66.84515	-320.19437	290.62308	16.48565	-294.55252	-60.95572	11.89981	345.47583	270.10284	57.59027	291.66711	195.40800	1128.08154	-627.67065	0.69934	516.25293	-475.54721	158.60477	512.21161	-480.12775	35.94997	559.44269	467.04947	187.13890	545.76147	462.69025	
6130	61.290	-118.24157	58.23974	-321.32077	290.49966	16.50424	-294.78256	-61.15470	11.90560	345.33432	268.68719	49.71896	290.75250	193.25487	1127.94873	-629.00946	0.20998	515.92145	-477.06970	158.09058	511.71027	-481.55988	34.55814	559.17694	465.57089	185.69972	545.90619	461.45956	
6131	61.300	-119.84607	50.10621	-322.23862	290.50433	16.61199	-294.71161	-61.68283	12.18691	345.38458	267.49045	42.16433	289.51611	191.29713	1127.73279	-630.36731	-0.26455	515.72345	-478.76541	157.60695	511.52133	-482.87277	32.96024	559.21466	464.16367	184.20923	545.81854	459.61853	
6132	61.310	-121.19802	42.91482	-322.81424	290.52567	16.64478	-294.70142	-61.77508	12.17884	345.22760	266.63843	35.19648	288.69522	189.44388	1127.33740	-632.02081	-0.62014	515.20093	-480.22937	156.84093	511.69122	-484.24496	31.34498	559.12866	462.18347	182.69910	545.81903	458.64642	
6133	61.320	-122.35446	36.83472	-323.55252	290.39554	16.74157	-294.80222	-61.66296	12.04145	345.20709	265.64783	29.17752	287.91656	187.41917	1127.13013	-633.75171	-1.09625	514.82483	-481.90549	156.71130	511.06052	-486.11542	29.76738	559.24805	460.55548	181.50194	545.94373	457.01642	
6134	61.330	-123.52315	30.43605	-324.73154	290.38593	16.83849	-294.74216	-61.68796	12.01191	345.13171	264.73718	23.15410	286.91235	185.29324	1126.69678	-635.50043	-1.65911	514.58282	-483.78546	156.96703	510.68887	-487.82974	28.33105	559.38635	458.84781	179.93385	546.23694	455.36020	
6135	61.340	-124.56882	23.69326	-326.40329	290.25610	16.92018	-294.79019	-61.77614	11.97783	344.99399	262.79236	16.44680	285.27222	183.15028	1126.27100	-637.54211	-2.20223	514.15497	-485.74237	156.55615	510.39789	-489.40363	26.74119	559.20227	456.77371	178.01282	546.14081	453.51486	
6136	61.350	-125.49484	18.17962	-328.64600	289.98306	16.91365	-294.94293	-61.74348	11.64324	344.72876	262.93475	13.89641	282.77109	180.81444	1125.89880	-639.42041	-2.99143	513.88019	-487.90924	154.98337	510.51758	-490.91452	24.84238	559.29010	454.85385	176.26724	546.43976	451.82449	
6137	61.360	-127.33466	19.53018	-330.27087	289.91159	16.93099	-295.00317	-61.95335	11.87684	344.56244	263.45151	12.23178	283.64911	178.62001	1125.37708	-641.73926	-3.39938	513.53198	-489.93030	154.66605	509.97705	-492.94464	22.76037	559.89178	452.77573	174.63145	547.25580	450.07593	
6138	61.370	-127.87906	18.59149	-329.64337	289.87543	16.97304	-295.03833	-61.63403	11.92916	344.06119	264.17532	13.71425	282.58002	176.17564	1125.19739	-643.91669	-3.79284	512.99969	-491.74057	154.34364	509.78217	-494.64630	21.24078	561.48486	450.91840	172.49631	549.15790	448.35559	
6139	61.380	-127.62753	16.13680	-329.24567	288.81577	19.86824	-295.52811	-62.17655	14.91154	343.42700	263.01590	13.68770	283.73523	173.92084	1125.12781	-646.96484	-4.08276	513.31305	-493.50220	153.69733	509.93130	-495.82416	19.30480	563.05798	449.27362	170.88449	551.16266	446.79083	
6140	61.390	-127.89905	15.66055	-330.01804	284.44226	22.75449	-292.92737	-60.74469	19.07209	344.71616	262.24185	13.22124	282.60358	171.50099	1124.81152	-650.22638	-4.67133	513.58234	-495.38013	153.51089	510.25253	-497.61038	17.63703	564.27423	447.54941	169.23849	552.31128	445.31088	
6141	61.400	-128.10565	16.79552	-330.27939	281.11972	26.55112	-289.14697	-58.28756	25.08925	346.08856	262.25699	14.17278	283.31238	168.75230	1124.18787	-653.17206	-4.63876	513.44666	-496.64655	153.36241	510.38675	-498.93069	16.14310	565.01740	445.91193	167.49977	553.23553	443.94336	
6142	61.410	-128.20697	16.65534	-330.20135	278.07156	35.43785	-288.99237	-55.35468	33.21390	346.50159	262.06033	13.80002	282.83762	166.02936	1123.39075	-654.96680	-4.78705	512.97534	-497.94974	153.23572	510.19211	-500.15176	14.98144	565.85150	444.51700	166.31084	554.11786	442.58319	
6143	61.420	-128.06532	15.65845	-330.28885	278.41910	45.03511	-289.14694	-54.96814	44.01682	345.02908	261.75739	13.90485	282.86322	163.39720	1123.01172	-656.38452	-5.45692	512.57037	-499.47293	153.35707	509.68890	-501.48700	13.84874	566.48499	442.97864	165.40350	554.97223	441.34836	
6144	61.430	-128.05812	15.36694	-329.73795	279.03976	57.49327	-292.97748	-57.84031	56.63853	341.19504	261.78412	13.88854	283.02460	161.51910	1122.67957	-657.77374	-6.00420	511.99683	-500.34109	152.71454	509.23068	-502.68359	13.44721	567.05737	441.83182	164.99477	555.52808	439.87057	
6145	61.440	-128.37653	15.71459	-329.88843	280.86417	69.58901	-296.33469	-61.49583	68.16511	337.19434	261.92758	13.45166	282.87888	159.51410	1122.14722	-659.09875	-6.92190	511.71890	-501.68469	152.05888	509.19617	-503.93817	13.24592	566.81952	440.86942	165.00870	555.59912	439.09973	
6146	61.450	-128.63104	15.67447	-329.97202	280.88467	81.82352	-300.81805	-65.46887	79.67249	332.54520	262.07590	13.31530	282.88797	157.08537	1121.79443	-660.14740	-7.28327	511.40302	-502.20703	151.67700	509.06680	-504.69016	13.62262	566.48016	440.14865	164.99937	555.31207	438.05396	
6147	61.460	-129.01953	15.42870	-329.64438	281.13507	93.67205	-305.22354	-68.40831	90.63609	327.53183	262.06967	13.21666	282.87241	154.40027	1121.29468	-660.93146	-7.63081	511.09702	-502.93365	151.18262	508.94522	-505.71988	14.16521	566.12079	439.31491	165.62953	555.02850	437.31885	
6148	61.470	-129.24762	15.38133	-329.59137	281.59940	105.94213	-308.88162	-71.05286	102.46441	322.66608	262.02597	13.11447	282.77542	151.34889	1121.11670	-661.66003	-7.98596	511.28125	-503.80887	149.97295	509.07736	-505.87976	14.27748	565.80170	438.71552	165.99042	554.63794	436.40652	
6149	61.480	-129.41837	15.52747	-329.56274	279.97293	116.52187	-314.13409	-72.82185	114.17908	317.25647	261.82635	12.95113	282.63022	148.56212	1121.30188	-662.32605	-8.28854	511.48178	-504.44662	149.95549	509.18729	-506.79025	14.83822	565.38617	438.07495	166.49150	554.43207	435.83374	
6150	61.490	-129.59183	15.81411	-329.62012	280.94333	127.27422	-317.49808	-73.77378	125.10454	312.75244	261.80499	12.85106	282.59064	146.10431	1121.56201	-662.50366	-8.13791	511.64972	-504.61783	150.73651	509.26755	-507.57584	15.45025	565.32031	437.74796	167.24385	554.24445	435.21414	
6151	61.500	-129.87962	16.05852	-329.54544	279.28003	136.08337	-322.18820	-73.49326	134.36710	308.82050	261.49606	12.63128	282.53662	143.96147	1121.99976	-662.67694	-8.34328	511.77350	-504.86661	150.61803	509.46732	-507.97528	16.45807	565.33704	437.46832	167.78940	554.20776	434.75342	
6152	61.510	-130.04263	16.15225	-329.41214	281.25632	144.80563	-324.98209	-73.62643	141.25172	306.12390	261.23743	12.44446	282.49158	142.57498	1122.21082	-662.55438	-8.43580	511.85532	-504.95285	150.43179	509.63986	-508.05746	17.25093	565.20514	437.38437	168.78455	554.10571	434.54349	
6153	61.520	-130.10616	16.32275	-329.27136	280.92572	149.89417	-328.32614	-73.54793	145.82457	303.80011	261.27435	12.25635	282.54764	141.57283	1122.43677	-662.34485	-8.54033	511.99701	-504.77286	150.24060	509.85132	-508.16916	18.56295	565.08722	437.50763	169.86565	554.18628	434.48062	
6154	61.530	-130.29076	16.63839	-329.19263	281.77408	152.22238	-330.24295	-73.70833	148.28836	302.61758	261.11380	11.97242	282.52936	140.85184	1122.45251	-662.04199	-8.46615	512.21722	-504.40302	150.24817	510.26846	-508.27060	19.70023	565.27124	437.60187	171.30249	554.24219	434.42551	
6155	61.540	-130.50597	17.04652	-329.12463	281.52875	151.61877	-331.69318	-73.64013	148.55598	301.69104	260.99899	11.67109	282.55704	139.58871	1122.64539	-661.88647	-8.42088	512.70557	-504.14493	150.12390	510.62042	-508.26346	21.34315	565.54535	438.12250	172.93187	554.58667	434.57159	
6156	61.550	-130.71857	17.48361	-328.97540	282.68594	149.27840	-332.02319	-73.30441	146.86794	301.54294	260.79395	11.26697	282.63428	138.35246	1123.06494	-661.48114	-8.35927	513.11261	-503.86475	150.33157	510.87457	-508.14676	22.61836	565.73804	438.36240	174.41364	554.51636	434.62259	
6157	61.560	-130.83636	17.66828	-328.87970	281.89084	144.76555	-333.36423	-72.60555	143.81061	301.23196	260.71573	11.01696	282.76080	136.90157	1123.43237	-661.12115	-8.29064	513.57440	-503.64337	150.50061	510.98386	-508.04617	24.32175	565.81744	438.56866	176.00185	554.67151	434.82364	
6158	61.570	-131.00447	17.90905	-328.59500	281.74890	139.36830	-334.70084	-71.30469	139.60130	300.87018	260.66022	10.83760	282.82077	135.50613	1123.53015	-660.59424	-7.98061	513.55298	-503.02710	151.04147	511.09808	-507.66562	26.10288	565.71143	439.19418	177.58585	554.44812	435.18768	
6159	61.580	-131.12642	18.06498	-328.45743	281.51627	133.20224	-336.08017	-70.68414	134.64174	300.50192	260.36771	10.67004	282.74942	134.16902	1123.59729	-660.05121	-7.34940	513.58691	-502.28799	151.37997	511.13498	-507.39200	27.48832	565.51324	439.61237	179.21109	554.24683	435.40414	
6160	61.590	-131.22327	18.24165	-328.23755	283.12650	126.88286	-336.47543	-68.06120	127.50970	300.06628	260.10306	10.36469	282.68405	133.20572	1123.51941	-659.33972	-7.17827	513.88025	-502.01517	151.90724	511.08081	-507.03345	29.48416	565.34705	440.22696	180.92783	553.82184	435.59329	
6161	61.600	-131.39622	18.57616	-328.21933	282.63947	119.74194	-338.59598	-67.39393	121.24131	298.83148	260.15112	10.03629	282.86502	132.67984	1123.44629	-658.67072	-6.64797	514.02008	-501.68033	152.50990	511.03937	-506.63672	31.13586	565.16870	440.68948	182.71953	553.60278	435.73557	
6162	61.610	-131.54007	18.68389	-328.05365	285.00150	112.73355	-339.86243	-66.23098	113.47378	297.95087	260.07336	9.64120	282.81967	132.05568	1123.30835	-658.03351	-6.07243	514.04681	-500.98672	152.08759	511.17633	-506.18463	33.40038	564.59351	441.13681	184.84258	552.90137	436.08197	
6163	61.620	-131.71173	18.76589	-327.79523	284.53293	103.92441	-342.31079	-64.96873	105.09712	296.62640	259.81659	9.13319	282.88843	131.51649	1123.10352	-657.45117	-5.38055	513.70465	-500.11697	152.46259	511.12872	-505.89792	35.01286	564.09235	441.59802	186.53407	552.39465	436.22388	
6164	61.630	-131.86699	18.91837	-327.52792	285.70102	95.55344	-344.02759	-63.16876	96.17924	296.24451	259.72665	8.85274	282.91693	130.87947	1122.96423	-656.61163	-5.04696	513.68634	-499.80038	152.93703	511.01672	-505.68182	37.01831	563.40186	442.25168	188.48918	551.59393	436.66489	
6165	61.640	-132.11263	19.18863	-327.33429	287.11954	87.21702	-345.45734	-59.77181	86.37521	295.77316	259.68790	8.61803	283.01791	130.36902	1122.91284	-655.85602	-4.19683	513.72638	-499.33929	153.64015	510.97565	-505.41058	38.86735	562.72882	442.79330	190.54955	551.15051	436.81915	
6166	61.650	-132.38625	19.53071	-327.19223	287.71698	78.15955	-346.19791	-58.42257	78.14193	294.95081	259.83389	8.52771	283.17993	129.89958	1123.03076	-654.98944	-3.71497	514.06525	-499.19937	154.49596	510.92816	-505.24780	41.19246	562.32300	443.17038	192.38472	550.57996	437.17398	
6167	61.660	-132.67554	19.86982	-327.03955	290.23279	69.46585	-345.75204	-56.35974	69.49310	294.92697	259.85208	8.26068	283.23978	129.49908	1123.10999	-654.40582	-2.58561	514.06488	-498.36975	154.93645	511.21274	-504.69037	43.19457	561.91278	443.40207	194.48444	549.86328	437.46463	
